<?xml version="1.0" ?><svg viewBox="0 0 512 512" xmlns="http://www.w3.org/2000/svg"><g id="Tooth_Decay"><path d="M453.2534,308.5107a512.6425,512.6425,0,0,0-70.4255-23.6294l15.6135-80.1142A105.79,105.79,0,0,0,353.42,96.4814c-21.8892-14.6948-50.3433-15.9423-74.2588-3.2568a50.3868,50.3868,0,0,1-46.3232.0005c-23.917-12.686-52.3711-11.438-74.2588,3.2563a105.7889,105.7889,0,0,0-45.021,108.2842l15.616,80.1277a512.087,512.087,0,0,0-69.2571,23.1321l-1.15.477a8,8,0,0,0-4.9346,7.3892V419.457a8,8,0,0,0,8,8H450.167a8,8,0,0,0,8-8V315.8916A8.0008,8.0008,0,0,0,453.2534,308.5107ZM167.4976,109.7656c16.9834-11.4009,39.1474-12.3222,57.8437-2.4057A65.624,65.624,0,0,0,256,114.8638a67.3094,67.3094,0,0,0,7.3766-.4119v24.6515a15.7714,15.7714,0,0,0,15.7713,15.7714,15.7713,15.7713,0,0,1,15.7714,15.7712v10.5073a24.5209,24.5209,0,0,0,24.5209,24.521h0a24.521,24.521,0,0,0,24.521-24.521V109.416c.18.1177.3624.23.5411.35a89.8227,89.8227,0,0,1,38.2344,91.9395l-32.25,165.4819a22.7185,22.7185,0,0,1-44.0337,2.2661l-19.8564-65.271a31.9812,31.9812,0,0,0-61.1934,0l-19.8564,65.271a22.7185,22.7185,0,0,1-44.0337-2.2661L129.2627,201.7036A89.8226,89.8226,0,0,1,167.4976,109.7656Z"/></g></svg>